<svg id="Layer_1" data-name="Layer 1" xmlns="http://www.w3.org/2000/svg" viewBox="0 0 116 116"><defs><style>.cls-1{fill:red;fill-opacity:0;}.cls-2{fill:#49d1ea;}.cls-3{fill:#fff;}</style></defs><rect class="cls-1" width="116" height="116"/><circle class="cls-2" cx="76.5" cy="42.5" r="23.5"/><path class="cls-3" d="M36.2,80.7A2.6,2.6,0,0,1,33.6,78a2.8,2.8,0,0,1,2.6-2.6H81.4A5.8,5.8,0,0,0,87,70.9l5.7-24.5a4.8,4.8,0,0,0-3.5-5.7H88.1l-55.5-.2L29.8,30.1A5.7,5.7,0,0,0,24.4,26H15.5a2.3,2.3,0,0,0,0,4.6h8.9a1,1,0,0,1,.9.7L35.9,70.8a7.2,7.2,0,0,0-7,7.4,7.4,7.4,0,0,0,7.3,7.2h3.4a8.2,8.2,0,0,0,14.8,7,8.5,8.5,0,0,0,0-7H69.1a8.2,8.2,0,0,0,14.8,7,8.3,8.3,0,0,0-.1-7.2,2.3,2.3,0,0,0,1.5-2.9,2.2,2.2,0,0,0-2.2-1.6Zm14.3,8.2A3.5,3.5,0,0,1,47,92.4a3.5,3.5,0,0,1,0-7h0A3.5,3.5,0,0,1,50.5,88.9Zm26,3.5A3.5,3.5,0,0,1,73,88.9a3.5,3.5,0,0,1,3.4-3.5h.2A3.5,3.5,0,0,1,80,88.9,3.5,3.5,0,0,1,76.5,92.4ZM88.2,45.3h0L85.8,55.7H77.7l1.4-10.4h9.1ZM64.1,70.8V60.4h8.3L71,70.8Zm-11.6,0L51.1,60.4h8.3V70.8Zm-10.8,0h0a1.4,1.4,0,0,1-1.2-.9L38,60.4h8.4l1.4,10.4Zm8.8-15.1L49.1,45.1H59.4V55.7Zm13.6,0V45.2H74.4L73,55.7ZM44.4,45.1l1.4,10.6H36.7L33.8,45.1Zm37,25.7H75.7l1.4-10.4h7.6l-2.2,9.5a1.2,1.2,0,0,1-1.1.9Z"/></svg>