<svg id="Layer_1" data-name="Layer 1" xmlns="http://www.w3.org/2000/svg" viewBox="0 0 116 116"><defs><style>.cls-1{fill:red;fill-opacity:0;}.cls-2,.cls-3,.cls-5,.cls-6,.cls-7{fill:none;}.cls-2,.cls-3,.cls-6,.cls-7{stroke:#fff;}.cls-2{stroke-miterlimit:10;}.cls-3{stroke-width:4px;}.cls-4{fill:#49d1ea;}.cls-6,.cls-7{stroke-width:2px;}.cls-7{stroke-linecap:round;}.cls-8{fill:#fff;}</style></defs><rect class="cls-1" width="116" height="116"/><path class="cls-2" d="M21,24H95a8,8,0,0,1,8,8V93a2.9,2.9,0,0,1-3,3H16a2.9,2.9,0,0,1-3-3V32A8,8,0,0,1,21,24Z"/><path class="cls-3" d="M21,26H95a6,6,0,0,1,6,6V93a.9.9,0,0,1-1,1H16a.9.9,0,0,1-1-1V32A6,6,0,0,1,21,26Z"/><rect class="cls-4" x="23" y="53" width="70" height="24" rx="3"/><circle class="cls-5" cx="79.5" cy="63.5" r="5.5"/><circle class="cls-6" cx="79.5" cy="63.5" r="4.5"/><line class="cls-7" x1="83.5" y1="67.5" x2="86.5" y2="70.5"/><rect class="cls-8" x="13" y="34" width="90" height="4"/></svg>