<svg id="Layer_1" data-name="Layer 1" xmlns="http://www.w3.org/2000/svg" viewBox="0 0 27.1 27"><defs><style>.cls-1,.cls-2,.cls-3{fill:none;}.cls-2,.cls-3{stroke:#000;stroke-width:2px;}.cls-3{stroke-linecap:round;}</style></defs><path class="cls-1" d="M3,11H7V24H3a2,2,0,0,1-2-2V13A2,2,0,0,1,3,11Z" transform="translate(-1 -4)"/><rect class="cls-2" x="1" y="8" width="4" height="11" rx="1"/><path class="cls-1" d="M5,12,17,4a2,2,0,0,1,2,2V29a2,2,0,0,1-2,2L5,23Z" transform="translate(-1 -4)"/><path d="M17,6.4,7,13.1v8.8l10,6.7V6.4M17,4a2,2,0,0,1,2,2V29a2,2,0,0,1-2,2L5,23V12Z" transform="translate(-1 -4)"/><path class="cls-3" d="M18,14a3.5,3.5,0,0,1,0,7" transform="translate(-1 -4)"/><path class="cls-3" d="M22.8,9.4A9.6,9.6,0,0,1,23,25.3l-.3.3" transform="translate(-1 -4)"/></svg>