<svg id="Layer_1" data-name="Layer 1" xmlns="http://www.w3.org/2000/svg" viewBox="0 0 116 116"><defs><style>.cls-1{fill:red;fill-opacity:0;}.cls-2,.cls-3{fill:none;}.cls-3{stroke:#0e1838;stroke-width:4px;}.cls-4{fill:#3caaf5;}</style></defs><rect class="cls-1" width="116" height="116"/><rect class="cls-2" x="22" y="17" width="72" height="83" rx="3"/><rect class="cls-3" x="24" y="19" width="68" height="79" rx="1"/><rect class="cls-2" x="29" y="24" width="58" height="41" rx="3"/><rect class="cls-3" x="31" y="26" width="54" height="37" rx="1"/><path class="cls-4" d="M43.5,71.1A4.9,4.9,0,0,1,48.4,76h0c0,4.4-8.8,10.3-8.8,10.3S30.8,80.6,30.8,76s2.2-4.9,4.8-4.9a4.8,4.8,0,0,1,4,2A4.6,4.6,0,0,1,43.5,71.1Z"/><circle class="cls-4" cx="61" cy="79" r="8"/><path class="cls-4" d="M68.5,86.6l-6.9-1.7L67,79.7Z"/></svg>