<svg id="Layer_1" data-name="Layer 1" xmlns="http://www.w3.org/2000/svg" viewBox="0 0 20 20"><defs><style>.cls-1{fill:#606f80;}.cls-2{fill:red;fill-opacity:0;}</style></defs><path class="cls-1" d="M15.5,12.72,13.87,11.1a1.07,1.07,0,0,0-1.52,0,1.11,1.11,0,0,0-.28.43,1.1,1.1,0,0,1-1.27.7,5,5,0,0,1-3-3,1,1,0,0,1,.7-1.28,1.07,1.07,0,0,0,.68-1.36,1.05,1.05,0,0,0-.27-.44L7.27,4.49a1.16,1.16,0,0,0-1.57,0L4.6,5.59c-1.1,1.16.12,4.23,2.84,7s5.8,4,7,2.84l1.1-1.1A1.16,1.16,0,0,0,15.5,12.72Z"/><rect class="cls-2" width="20" height="20"/></svg>