<svg id="logo" xmlns="http://www.w3.org/2000/svg" width="378.671" height="93.317" viewBox="0 0 284 70"><defs><style>.cls-2{fill:#0d529f}.cls-3{isolation:isolate}</style></defs><path id="area" fill="#999" fill-opacity="0" d="M0 0h284v70H0z"/><g id="logo-2"><g id="그룹_4" data-name="그룹 4"><path id="패스_1" data-name="패스 1" class="cls-2" d="M121.44 42.35a6.14 6.14 0 01-6.2-6.31v-.3a6.15 6.15 0 016.3-6.5 5.66 5.66 0 015.1 2.9h5a10.82 10.82 0 00-20.9 3.4V36a10.41 10.41 0 0010.5 10.4h.2a10.49 10.49 0 0010.2-7h-5a6 6 0 01-5.2 2.95z"/><g id="그룹_3" data-name="그룹 3"><g id="그룹_2" data-name="그룹 2"><g id="그룹_1" data-name="그룹 1"><path id="패스_2" data-name="패스 2" class="cls-2" d="M2.14 34.35l2 7.8a5.5 5.5 0 001 1.1L2.54 33a2.48 2.48 0 00-.4 1.35zm.3-1.7l3.8 11.6.9.6-4.3-13.1c-.1.25-.3.6-.4.9zm4.4 4.09l-3.1-6.6a4.35 4.35 0 00-.4.7l7.2 15.3a2.2 2.2 0 00.8.1l-3.1-6.6a4.92 4.92 0 01-1.4-2.9zm2.7 4l3 5.5h.7l-2.8-5c-.2-.09-.5-.3-.9-.5zm2.9.8h-.7l2.9 4.61a3 3 0 00.7-.2l-2.9-4.41zm4-1.6l3.3 3.5c.2-.1.3-.3.5-.5l-3.3-3.5c-.2.1-.3.3-.5.5zm6.5-4.4l-14.7-9.3c-.2.11-.5.2-.7.3l5.7 3.61a5.92 5.92 0 014.1 2.6l5.7 3.6v-.5a.39.39 0 01-.1-.31zm-16-1l-2.7-4.89L7 34a4.27 4.27 0 01.3-.69l-2.5-4L7.54 33a2.4 2.4 0 01.4-.6l-2.5-3.5 2.7 3.3c.1-.2.3-.3.4-.5l-2.7-3.2 2.9 3c.2-.1.3-.3.5-.39L6.34 28l3.1 2.9.6-.3-3.3-3.1 3.6 2.9a1.85 1.85 0 01.7-.2L7.14 27l4.3 3.1a3.4 3.4 0 011-.1l-4.9-3.5a9.18 9.18 0 00-3.8 3.5l3 5.5a4.4 4.4 0 01.2-.96zM2 35.85a9.88 9.88 0 001 4.5l-1-5.2v.7zm.9-4.2l5.5 13.89.8.31-5.9-15a2 2 0 00-.4.8zm17.3-2.8l-8.6-3.4a5.85 5.85 0 00-1.3.2l10.7 4.2a8 8 0 00-.8-1zm2.4 4.5L9 26c-.3.1-.5.2-.8.3l14.5 8a2.74 2.74 0 00-.1-.9zm-.8-2.2l-11.7-5.5c-.3.1-.6.2-1 .3l13.1 6.1c-.1-.31-.3-.61-.4-.9zm-9.4-5.8h-.3l6.7 2.19a10.6 10.6 0 00-6.4-2.19zM18 36.94l3.9 3.2.3-.6-4.1-3.4a2 2 0 01-.1.8zm-.6 1.6l3.5 3.31c.1-.2.3-.4.4-.61l-3.6-3.39a4.27 4.27 0 01-.3.69zm.7-3.5l4.5 3.31a1.7 1.7 0 00.1-.7l-4.9-3.5a3 3 0 01.3.89zm-3 5.81l3.1 3.69a1 1 0 00.5-.39l-3-3.7a2.32 2.32 0 01-.6.4zm-1.5.59l2.9 4 .6-.3-2.9-3.9a1.3 1.3 0 01-.6.2z"/><path id="패스_3" data-name="패스 3" class="cls-2" d="M18.14 35.74L22.94 46v-1.6L18.14 34zm0-4.2l4.8 12.31V42l-4.8-12.3zm4-6.19l.8 3.5v-3.5zm-9.7 31.39a12.41 12.41 0 002.7-.3l-2.7-.3zm5.7-11.39l3.7 4.65-3.7-4.1v1l3.2 3.6L18 47.24a1.45 1.45 0 01-.2.7l3 3-3.1-2.7-.3.61 3 2.6-3.1-2.4a2.09 2.09 0 01-.4.6l3 2.3-3.2-2.1c-.1.2-.3.3-.4.5l3.2 2.2-3.4-2c-.2.2-.4.3-.5.4l3.6 2.1-3.8-2a4.35 4.35 0 01-.7.4l4.2 2.2-4.6-2c-.3.1-.6.2-1 .3l5.3 2.3-6.1-2.2h-.3v.6l6.1 2.2a11.24 11.24 0 003.9-5.2l-4.2-5.3zm0-20v.39l4.8 14.9v-2.2l-4.2-13.2h-.6zm2.1 0l2.7 10.8v-2.7l-2-8.1zm-7.8 29.39l4.4 1a4.05 4.05 0 00.9-.5l-5.3-1.3zm0-1.09l5.3 1.6a3 3 0 00.7-.5L12.34 53v.7zm0 2.09l3.1.5a6.12 6.12 0 001.2-.5l-4.3-.7zm5.7-16.8l4.7 8.7a4.87 4.87 0 00.1-1.2l-4.7-8.9zm0 2.5l4.5 7.3c.1-.3.1-.6.2-.89l-4.6-7.61v1.2zm0 2.1l4.2 6a2.35 2.35 0 00.2-.8l-4.4-6.3z"/><path id="패스_4" data-name="패스 4" class="cls-2" d="M33.64 46.24l7.8-2a5.24 5.24 0 001.1-1l-10.3 2.61a5.73 5.73 0 001.4.39zm-1.7-.39L43.54 42l.6-.89-13.2 4.29a4.22 4.22 0 001 .45zm4-4.41l-6.6 3.1a3.23 3.23 0 00.7.4l15.3-7.2c0-.3.1-.5.1-.8L38.84 40a4.58 4.58 0 01-2.9 1.44zm4.1-2.7l5.5-3V35l-5 2.81a6.43 6.43 0 00-.5.89zm.8-2.89v.69l4.6-2.89a6.37 6.37 0 01-.2-.7l-4.4 2.9zm-1.7-4l3.5-3.31-.5-.5-3.5 3.31.5.5zm-4.3-6.5L25.54 40c.1.2.2.5.3.7l3.6-5.7a5.94 5.94 0 012.6-4.1l3.6-5.7h-.5a.35.35 0 01-.3.11zm-1.1 16.09L28.94 44l4.4-2.8a4.88 4.88 0 01-.7-.3l-4 2.5 3.7-2.7a2.27 2.27 0 01-.6-.39l-3.5 2.5 3.3-2.7c-.2-.11-.3-.3-.5-.4l-3.2 2.7 3-2.9c-.1-.2-.3-.3-.4-.5L27.34 42l2.9-3.1-.3-.61-3.1 3.3 2.9-3.6a1.85 1.85 0 01-.2-.7l-3.2 3.9 3.1-4.3a3.4 3.4 0 01-.1-1l-3.5 4.9a9.18 9.18 0 003.5 3.8l5.5-3c-.3 0-.7-.1-1.1-.1zM35 46.35a10 10 0 004.5-1l-5.2 1zm-4.2-.91l13.9-5.5c.1-.3.2-.5.3-.8L30 45a3.32 3.32 0 01.8.4zM28 28l-3.4 8.61a6 6 0 00.2 1.3L29 27.25a6.9 6.9 0 01-1 .75zm4.6-2.39l-7.4 13.6c.1.3.2.5.3.8l8-14.5c-.4 0-.6.1-.9.1zm-2.3.79l-5.5 11.7c.1.3.2.6.3 1L31.24 26a3.23 3.23 0 01-.9.4zm-5.7 9.41v.3l2.2-6.7a9.91 9.91 0 00-2.16 6.44zm11.6-5.61l3.2-3.89-.6-.31-3.4 4.11a2.43 2.43 0 01.84.13zm1.6.61l3.3-3.5a2.89 2.89 0 01-.5-.4l-3.4 3.6.6.3zm-3.5-.7l3.3-4.5a1.56 1.56 0 00-.7-.11l-3.5 4.9c.2-.09.6-.2.9-.29zm5.8 3L43.84 30a1.09 1.09 0 00-.4-.5l-3.7 3c.1.2.3.4.4.61zm.5 1.59l4-2.89-.3-.61-3.9 2.9a.85.85 0 01.2.6z"/><path id="패스_5" data-name="패스 5" class="cls-2" d="M40.74 31.44l4.8 6v-1.1l-4.8-6zm0 2.3l4.8 5.3V38l-4.8-5.3zm0-5l4.8 6.8v-1.1l-4.8-6.8zm0 17.61h1.2l-1.1-.4zm2.1-20.91l2.7 5.1v-1.39l-2-3.7h-.7zm-2.1 10.41l4.8 4.69v-.89L40.74 35zm0-10.41l4.8 7.8V32l-4-6.6zm4.8 0h-.7l.7 1.6v-1.6zm-4.8 12.21l4.8 4.2V41l-4.8-4.1zm0 8l1.7.6h1.9L40.74 45zm0-2.3l4.8 2.39V45l-4.8-2.39zm0 1.19l4 1.81h.8V46l-4.8-2.1zm0-2.5l4.8 2.81V44l-4.8-2.8zm0-2.8l4.8 3.7V42l-4.8-3.69zm0 1.5l4.8 3.2v-.8l-4.8-3.2z"/><path id="패스_6" data-name="패스 6" class="cls-2" d="M59.84 25.44l-7.8 2a5.24 5.24 0 00-1.1 1l10.3-2.6a6.21 6.21 0 00-1.4-.4zm1.7.41l-11.6 3.8-.6.89 13.1-4.3a1.79 1.79 0 00-.9-.39zm-4 4.3l6.6-3.15a3.72 3.72 0 00-.7-.39l-15.3 7.2c0 .3-.1.5-.1.8l6.6-3.11a6.14 6.14 0 012.9-1.35zm-4.1 2.79l-5.5 3v.7l5-2.8a2.53 2.53 0 00.5-.9zm-.7 2.91v-.7L48.14 38a2.54 2.54 0 00.2.7l4.4-2.89zm1.6 4l-3.5 3.3.5.5 3.5-3.3zm4.3 6.5l9.3-14.7c-.1-.2-.2-.5-.3-.7L64 36.65a5.92 5.92 0 01-2.6 4.1l-3.6 5.7h.5a.77.77 0 01.34-.1zm1.1-16.11l4.8-2.7-4.4 2.81a4 4 0 01.7.3l4-2.5-3.7 2.7a2 2 0 01.6.39l3.5-2.5-3.3 2.7c.2.1.3.3.5.4l3.2-2.7-3 2.8c.1.2.3.3.4.5l3.1-2.9-2.9 3.11.3.6 3.1-3.3-2.9 3.6a1.85 1.85 0 01.2.7l3.2-3.9-3.14 4.3a3.4 3.4 0 01.1 1l3.5-4.9a9.18 9.18 0 00-3.5-3.8l-5.5 3a4.07 4.07 0 001.14.29zm-1.3-4.89a9.88 9.88 0 00-4.5 1l5.2-1zm4.2.89l-13.9 5.5c-.1.3-.2.5-.3.8l15-5.89c-.3-.11-.5-.3-.8-.41zm2.8 17.41l3.4-8.65a6 6 0 00-.2-1.3l-4.2 10.7a7.67 7.67 0 011-.79zM60.84 46l7.5-13.6c-.1-.3-.2-.5-.3-.8l-8 14.5c.3 0 .6-.1.8-.1zm2.3-.89l5.5-11.7c-.1-.3-.2-.6-.3-1l-6.1 13.1a3.94 3.94 0 00.9-.4zm5.7-9.3v-.31l-2.2 6.7a9.93 9.93 0 002.2-6.39zm-11.6 5.59L54 45.34l.6.3 3.4-4.1a2.2 2.2 0 01-.8-.1zm-1.6-.59l-3.3 3.5c.2.1.4.3.6.39l3.4-3.6a6.54 6.54 0 01-.7-.29zm3.5.69l-3.2 4.5a1.56 1.56 0 00.7.11l3.5-4.9c-.3.1-.6.19-1 .29zm-5.8-3l-3.7 3.11a1 1 0 00.4.5l3.7-3a2 2 0 00-.4-.61zm-.5-1.6l-4 2.9.3.6 3.9-2.9a1 1 0 01-.2-.6z"/><path id="패스_7" data-name="패스 7" class="cls-2" d="M47.94 39.85L50 46.24h.7l-2.8-8.6zm0-4.7l4.4 11.1h.3v-.9l-4.8-12zM52.74 15h-4.8v5.81l4.8 3.89v-.8L48 20l4.7 3.4v-.8l-4.4-3.2 4.4 2.8v-.8l-4-2.5 4 2.2v-.7l-3.7-2 3.7 1.7v-.7l-3.4-1.6 3.4 1.4v-.7l-3.2-1.3 3.2 1v-.7l-3-1 3 .8v-.7l-2.8-.7 2.8.5v-.7l-2.7-.5 2.7.3zm-4.8 31.31h.9l-.9-2.4zm0-14.61l4.8 10.11v-1.5l-4.8-10.11zm0-7.8l4.8 5.7v-1l-4.8-5.7zm0-2.29l4.8 4.5v-.9l-4.8-4.5zm0 1.09l4.8 5.11v-1l-4.8-5.11zm0 4.3l4.8 7.5v-1.15l-4.8-7.5zm0-1.69l4.8 6.5v-1.07l-4.8-6.5zm0 3.8l4.8 8.6v-1.4l-4.8-8.6z"/><path id="패스_8" data-name="패스 8" class="cls-2" d="M77.64 34.35l2 7.8a5.5 5.5 0 001 1.1L78 33a2.48 2.48 0 00-.36 1.35zm.3-1.61l3.8 11.61.9.6-4.3-13.1a3.81 3.81 0 00-.4.89zm4.4 4l-3.1-6.6a4.35 4.35 0 00-.4.7L86 46.14a2.2 2.2 0 00.8.1l-3.1-6.6a4.64 4.64 0 01-1.4-2.9zm2.7 4l3 5.5h.7l-2.8-5a7.36 7.36 0 01-.94-.5zm2.9.8h-.7l2.9 4.61a3 3 0 00.7-.2l-2.9-4.41zm4-1.6l3.3 3.5.5-.5-3.3-3.5c-.2.1-.3.3-.5.5zm6.5-4.4l-14.7-9.3c-.2.11-.5.2-.7.3l5.7 3.61a5.92 5.92 0 014.1 2.6l5.7 3.6v-.5a.39.39 0 01-.1-.31zm-16-1l-2.7-4.89 2.8 4.35a4.27 4.27 0 01.3-.69l-2.5-4L83 33a2.4 2.4 0 01.4-.6l-2.5-3.5 2.7 3.3c.1-.2.3-.3.4-.5l-2.7-3.2 2.9 3c.2-.1.3-.3.5-.39L81.84 28l3.1 2.9.6-.3-3.3-3.1 3.6 2.9a1.85 1.85 0 01.7-.2l-3.9-3.2 4.3 3.1a3.4 3.4 0 011-.1L83 26.54a9.18 9.18 0 00-3.8 3.5l3 5.5a4.4 4.4 0 01.24-1zm-4.9 1.31a9.88 9.88 0 001 4.5l-1-5.2c0 .2-.1.5 0 .7zm.8-4.2l5.5 13.89.8.31-5.9-15a6.54 6.54 0 01-.4.8zm17.4-2.8l-8.6-3.4a5.85 5.85 0 00-1.3.2l10.7 4.2a8 8 0 00-.8-1zm2.4 4.5L84.54 26c-.3.1-.5.2-.8.3l14.5 8a2.74 2.74 0 00-.1-.9zm-.8-2.2l-11.7-5.5c-.3.1-.6.2-1 .3l13.1 6.1c-.1-.31-.3-.61-.4-.9zm-9.4-5.8h-.3l6.7 2.19a10.6 10.6 0 00-6.4-2.19zm5.6 11.59l3.9 3.2.3-.6-4.1-3.4a2 2 0 01-.1.8zm-.6 1.6l3.5 3.31a2.28 2.28 0 01.4-.61l-3.6-3.39a4.27 4.27 0 01-.3.69zm.7-3.5l4.5 3.31a1.7 1.7 0 00.1-.7l-4.9-3.5a3 3 0 01.3.89zm-3 5.81l3.1 3.69a1 1 0 00.5-.39l-3-3.7a2.32 2.32 0 01-.6.4zm-1.6.59l2.9 4 .6-.3-2.9-3.9a.8.8 0 01-.6.2z"/><path id="패스_9" data-name="패스 9" class="cls-2" d="M98.44 46.35L93.64 28v2.81l4.1 15.5zm0-21.2h-.6l.6.7zm0 14.7l-4.7-14.11 4.7 11.61v-1.9l-4-9.9 4 8.4v-1.7l-3.4-7 3.4 6v-1.5l-2.6-4.6h-2.2v2.39L98.44 42zm-4.8 6.5h.7l-.7-5.5v5.5zm4.8-20.2l-.7-1h-.9l1.6 2.2v-1.2zm0 1.7l-1.7-2.61h-.8l2.5 3.9zm-2.1 18.5l-2.7-13.9v3.7l2 10.2z"/><path id="패스_10" data-name="패스 10" class="cls-2" d="M70.84 25.15l4.8 18.3v-2.8l-4.1-15.5zm0 21.2h.6l-.6-.7zm0-14.7l4.7 14.1-4.7-11.6V36l4 9.9-4-8.4v1.61l3.4 7-3.4-6v1.5l2.6 4.6h2.2v-2.4l-4.8-14.5zm4.8-6.5h-.9l.9 5.7v-5.7zm-4.8 20.2l.7 1h.9l-1.6-2.2v1.2zm0-1.7l1.7 2.6h.8l-2.5-3.9zm2-18.5L75.54 39v-3.65l-2-10.2z"/><path id="패스_11" data-name="패스 11" class="cls-2" d="M70.84 25.15l4.8 18.3v-2.8l-4.1-15.5zm0 21.2h.6l-.6-.7zm0-14.7l4.7 14.1-4.7-11.6V36l4 9.9-4-8.4v1.61l3.4 7-3.4-6v1.5l2.6 4.6h2.2v-2.4l-4.8-14.5zm4.8-6.5h-.9l.9 5.7v-5.7zm-4.8 20.2l.7 1h.9l-1.6-2.2v1.2zm0-1.7l1.7 2.6h.8l-2.5-3.9zm2-18.5L75.54 39v-3.65l-2-10.2z"/><path id="패스_12" data-name="패스 12" class="cls-2" d="M105 46.35a2.92 2.92 0 002.1-.9 2.72 2.72 0 00.9-2.1 2.9 2.9 0 00-.9-2.11 2.72 2.72 0 00-2.1-.89 3.94 3.94 0 00-1.1.19l2.3.7-2.6-.6a3 3 0 00-.7.5l-.1.1 3.2.7-3.4-.5a2.09 2.09 0 00-.4.6l3.7.5-3.8-.19a1.42 1.42 0 00-.1.69l3.9.2H102a1.7 1.7 0 00.1.7h3.8l-3.7.3.3.61 3.5-.31-3.3.5.2.2a1.94 1.94 0 00.5.4l2.7-.5-2.4.6a1.48 1.48 0 001.3.61z"/></g><path id="패스_537" data-name="패스 537" class="cls-2" d="M149.64 27.85a9.15 9.15 0 00-6.7-2.5 6.57 6.57 0 00-5 1.8v-2h-4.2V46h4.6V34.24a4.7 4.7 0 018-3.3 4.53 4.53 0 011.4 3.3V46h4.5V34.24a9 9 0 00-2.6-6.39z"/></g></g><path id="패스_13" data-name="패스 13" class="cls-2" d="M170.54 36.94c-2.4-2.1-5.6-2.3-8.5-3.3-1.2-.4-3.1-1.5-2.2-3.1.6-1 2.2-1.2 3.2-1.2 2.1 0 3.5.9 3.5 2.5v.3h5v-.3c0-3.8-3.3-6.6-8.5-6.6-5 0-8.4 2.3-8.4 6.5v.6c.3 3 2.9 4.2 5.7 5 1 .3 2 .5 3 .7 1.3.2 3.8.9 4 2.2.2 1.5-1.1 2.6-4 2.6-2.1 0-3.9-1.1-4-2.5 0-.2-.1-.4-.1-.6v-.4h-5v.4c0 4 3.9 6.8 9.3 6.8a17 17 0 002.2-.1c2.3-.3 4.7-1.3 5.7-3.6a4.82 4.82 0 00-.9-5.9z"/></g><g class="cls-3"><path class="cls-2" d="M202.14 32.35l-3.1-8.9h-.1c.1 1.3.1 2.6.1 3.7v5.2h-1.6v-10.7h2.5l3 8.5 3.1-8.5h2.5v10.7h-1.7v-7.41a5.38 5.38 0 01.1-1.6h-.1l-3.2 8.9h-1.5zm15.8 0l-1.1-3h-4.1l-1 3h-1.8l4-10.81h1.9l4 10.81zm-1.5-4.41l-1-2.9a4.51 4.51 0 01-.3-.89 4.65 4.65 0 00-.3-.9 8.93 8.93 0 01-.6 2l-1 2.8h3.2zm6.56.21v4.3h-1.8v-10.7h3a5.22 5.22 0 013.1.8 2.64 2.64 0 011 2.3 2.85 2.85 0 01-2.1 2.8l3 4.7h-2l-2.6-4.3H223zm0-1.5h1.2a3 3 0 001.8-.5 1.54 1.54 0 00.5-1.3 1.5 1.5 0 00-.6-1.31 3 3 0 00-1.8-.39h-1.2v3.5zm16 5.7h-2l-3.4-4.81-1 .81v4h-1.8v-10.7h1.8v5.1c.5-.6 1-1.2 1.4-1.7l2.9-3.4h2c-1.9 2.2-3.2 3.8-4 4.7zm7.44 0h-6.1v-10.7h6.1v1.5h-4.3V26h4v1.5h-4v3.4h4.3zm6.1 0h-1.8v-9.2h-3.1v-1.5h8v1.5h-3.1zm4.7 0v-10.7H259v10.7zm13.5 0h-2.1l-5.3-8.5h-.1v.5a21.58 21.58 0 01.1 2.5v5.6h-1.6v-10.7h2.1l5.3 8.5a8.33 8.33 0 00-.1-1.2v-7.3h1.6v10.6zm7.26-5.81h3.9v5.4a6.46 6.46 0 01-1.9.4 11.48 11.48 0 01-1.9.1 5.22 5.22 0 01-3.8-1.4 5.78 5.78 0 01-1.3-4.1 5.2 5.2 0 011.5-4 5.59 5.59 0 014.1-1.5 8.66 8.66 0 013.2.6l-.6 1.5a6.31 6.31 0 00-2.6-.6 3.69 3.69 0 00-2.7 1.1 4 4 0 00-1 2.9 4.48 4.48 0 00.9 3 3.25 3.25 0 002.6 1 11 11 0 001.8-.2V28H278z"/></g><g class="cls-3"><path class="cls-2" d="M202 41a3 3 0 00-2.4 1.11 4.48 4.48 0 00-.9 3 5.1 5.1 0 00.8 3 3 3 0 002.4 1 4.82 4.82 0 001.3-.11c.4-.1.9-.19 1.3-.3v1.5a8.36 8.36 0 01-2.9.5 4.62 4.62 0 01-3.6-1.39 6.12 6.12 0 01-1.3-4.11 6.45 6.45 0 01.6-2.89 4.1 4.1 0 011.8-1.9 6.14 6.14 0 015.7 0l-.6 1.5c-.4-.2-.7-.3-1.1-.5-.16-.41-.56-.41-1.1-.41zm11 9.35h-6.1v-10.7h6.1v1.5h-4.3V44h4v1.5h-4v3.4h4.3zm11.34 0h-2.1l-5.3-8.5h-.1v.5a21.58 21.58 0 01.1 2.5v5.6h-1.6v-10.7h2.1l5.3 8.5a8.33 8.33 0 00-.1-1.2v-7.3h1.6v10.6zm6.5 0H229v-9.2h-3.1v-1.5h8v1.5h-3.1zm10.8 0h-6.1v-10.7h6.1v1.5h-4.3V44h4v1.5h-4v3.4h4.3zm4.1-4.2v4.3h-1.8v-10.7h3a5.22 5.22 0 013.1.8 2.64 2.64 0 011 2.3 2.85 2.85 0 01-2.1 2.8l3 4.7h-2l-2.6-4.3h-1.6zm0-1.5h1.2a3 3 0 001.8-.5 1.54 1.54 0 00.5-1.3 1.5 1.5 0 00-.6-1.31 3 3 0 00-1.8-.39h-1.2v3.5z"/></g><path id="사각형_1" data-name="사각형 1" class="cls-2" d="M184.44 22.24h.3v26.7h-.3z"/></g></svg>