<svg id="Layer_1" data-name="Layer 1" xmlns="http://www.w3.org/2000/svg" viewBox="0 0 116 116"><defs><style>.cls-2{fill:none}</style></defs><path fill="red" fill-opacity="0" d="M0 0h116v116H0z"/><path class="cls-2" d="M21 24h74a8 8 0 018 8v61a2.9 2.9 0 01-3 3H16a2.9 2.9 0 01-3-3V32a8 8 0 018-8z"/><path d="M21 26h74a6 6 0 016 6v61a.9.9 0 01-1 1H16a.9.9 0 01-1-1V32a6 6 0 016-6z" stroke="#0e1838" stroke-width="4" fill="none"/><rect x="23" y="53" width="70" height="24" rx="3" fill="#3caaf5"/><circle class="cls-2" cx="79.5" cy="63.5" r="5.5"/><circle cx="79.5" cy="63.5" r="4.5" stroke="#fff" stroke-width="2" fill="none"/><path stroke-linecap="round" stroke="#fff" stroke-width="2" fill="none" d="M83.5 67.5l3 3"/><path fill="#0e1838" d="M13 34h90v4H13z"/></svg>