<svg data-name="Layer 1" xmlns="http://www.w3.org/2000/svg" viewBox="0 0 116 116"><path fill="none" d="M0 0h116v116H0z"/><circle cx="76.5" cy="42.5" r="23.5" fill="#3caaf5"/><path d="M36.2 80.7a2.6 2.6 0 01-2.6-2.7 2.8 2.8 0 012.6-2.6h45.2a5.8 5.8 0 005.6-4.5l5.7-24.5a4.8 4.8 0 00-3.5-5.7h-1.1l-55.5-.2-2.8-10.4a5.7 5.7 0 00-5.4-4.1h-8.9a2.3 2.3 0 000 4.6h8.9a1 1 0 01.9.7l10.6 39.5a7.2 7.2 0 00-7 7.4 7.4 7.4 0 007.3 7.2h3.4a8.2 8.2 0 0014.8 7 8.5 8.5 0 000-7h14.7a8.2 8.2 0 0014.8 7 8.3 8.3 0 00-.1-7.2 2.3 2.3 0 001.5-2.9 2.2 2.2 0 00-2.2-1.6zm14.3 8.2a3.5 3.5 0 01-3.5 3.5 3.5 3.5 0 010-7 3.5 3.5 0 013.5 3.5zm26 3.5a3.5 3.5 0 01-3.5-3.5 3.5 3.5 0 013.4-3.5h.2a3.5 3.5 0 013.4 3.5 3.5 3.5 0 01-3.5 3.5zm11.7-47.1l-2.4 10.4h-8.1l1.4-10.4h9.1zM64.1 70.8V60.4h8.3L71 70.8zm-11.6 0l-1.4-10.4h8.3v10.4zm-10.8 0a1.4 1.4 0 01-1.2-.9L38 60.4h8.4l1.4 10.4zm8.8-15.1l-1.4-10.6h10.3v10.6zm13.6 0V45.2h10.3L73 55.7zM44.4 45.1l1.4 10.6h-9.1l-2.9-10.6zm37 25.7h-5.7l1.4-10.4h7.6l-2.2 9.5a1.2 1.2 0 01-1.1.9z" fill="#0e1838"/></svg>