<svg id="Layer_1" data-name="Layer 1" xmlns="http://www.w3.org/2000/svg" viewBox="0 0 21.8 30"><defs><style>.cls-1{fill:#3caaf5}</style></defs><path class="cls-1" d="M14.8 27.2H9.1a.9.9 0 01-.9-1 .9.9 0 01.9-.9h5.7a.9.9 0 011 .9.9.9 0 01-1 1zM12 5.4a1 1 0 01-1-1V2a1 1 0 011-1 .9.9 0 01.9 1v2.4a.9.9 0 01-.9 1zm8.2 3.5a1 1 0 01-1-1 .9.9 0 01.3-.7l1.7-1.7a1 1 0 011.4 0 .9.9 0 010 1.3l-1.8 1.8a.9.9 0 01-.6.3zm-16.4 0a1.1 1.1 0 01-.7-.3L1.4 6.8a.9.9 0 010-1.3.9.9 0 011.3 0l1.8 1.7a1 1 0 010 1.4.9.9 0 01-.7.3zm12.9 7.8a1 1 0 01-1-1 3.5 3.5 0 00-3.5-3.5.9.9 0 01-.9-.9 1 1 0 01.9-1 5.4 5.4 0 015.4 5.4.9.9 0 01-.9 1z" transform="translate(-1.1 -1)"/><path class="cls-1" d="M13.5 31h-3.1a2.4 2.4 0 01-2.2-2.4v-2.4a3.9 3.9 0 00-1.5-3.3 8.9 8.9 0 01-3.2-9 8.4 8.4 0 016.6-6.8 8.6 8.6 0 017.4 1.7 9 9 0 011.1 12.7 6.8 6.8 0 01-1.2 1.2 4.3 4.3 0 00-1.7 3.3v2.8a2.2 2.2 0 01-2.2 2.2zM12 8.8h-1.5a6.9 6.9 0 00-5.2 5.4 6.8 6.8 0 002.6 7 6.1 6.1 0 012.2 4.9v2.2c0 .1 0 .7.3.7h3.1a.4.4 0 00.4-.3V26a6 6 0 012.3-4.8 7.1 7.1 0 001.1-9.9l-1-1A6.8 6.8 0 0012 8.8z" transform="translate(-1.1 -1)"/></svg>