<svg data-name="Layer 1" xmlns="http://www.w3.org/2000/svg" viewBox="0 0 116 116"><path fill="red" fill-opacity="0" d="M0 0h116v116H0z"/><path d="M21 24h74a8 8 0 018 8v61a2.9 2.9 0 01-3 3H16a2.9 2.9 0 01-3-3V32a8 8 0 018-8z" fill="none"/><path d="M21 26h74a6 6 0 016 6v61a.9.9 0 01-1 1H16a.9.9 0 01-1-1V32a6 6 0 016-6z" stroke="#0e1838" stroke-width="4" fill="none"/><rect x="23" y="44" width="27" height="42" rx="3" fill="#3caaf5"/><path d="M13 34h90v4H13zm45 14h35v4H58zm0 8h35v4H58zm0 8h35v4H58z" fill="#0e1838"/></svg>