<svg id="Layer_1" data-name="Layer 1" xmlns="http://www.w3.org/2000/svg" viewBox="0 0 27.1 27"><defs><style>.cls-1{fill:none}</style></defs><path class="cls-1" d="M3 11h4v13H3a2 2 0 01-2-2v-9a2 2 0 012-2z" transform="translate(-1 -4)"/><rect x="1" y="8" width="4" height="11" rx="1" stroke="#000" stroke-width="2" fill="none"/><path class="cls-1" d="M5 12l12-8a2 2 0 012 2v23a2 2 0 01-2 2L5 23z" transform="translate(-1 -4)"/><path d="M17 6.4L7 13.1v8.8l10 6.7V6.4M17 4a2 2 0 012 2v23a2 2 0 01-2 2L5 23V12z" transform="translate(-1 -4)"/><path d="M17 10a3.5 3.5 0 010 7m4.8-11.6a9.6 9.6 0 01.2 15.9l-.3.3" stroke="#000" stroke-width="2" stroke-linecap="round" fill="none"/></svg>