<svg data-name="Layer 1" xmlns="http://www.w3.org/2000/svg" viewBox="0 0 116 116"><path fill="none" d="M0 0h116v116H0z"/><path d="M21 24h74a8 8 0 018 8v61a2.9 2.9 0 01-3 3H16a2.9 2.9 0 01-3-3V32a8 8 0 018-8z" stroke-miterlimit="10" stroke="#fff" fill="none"/><path d="M21 26h74a6 6 0 016 6v61a.9.9 0 01-1 1H16a.9.9 0 01-1-1V32a6 6 0 016-6z" stroke-width="4" stroke="#fff" fill="none"/><rect x="23" y="53" width="70" height="24" rx="3" fill="#49d1ea"/><circle cx="79.5" cy="63.5" r="5.5" fill="none"/><circle cx="79.5" cy="63.5" r="4.5" stroke-width="2" stroke="#fff" fill="none"/><path stroke-linecap="round" stroke-width="2" stroke="#fff" fill="none" d="M83.5 67.5l3 3"/><path fill="#fff" d="M13 34h90v4H13z"/></svg>