<svg id="Layer_1" data-name="Layer 1" xmlns="http://www.w3.org/2000/svg" viewBox="0 0 116 116"><defs><style>.cls-2,.cls-3{fill:none}.cls-3{stroke:#0e1838;stroke-width:4px}.cls-4{fill:#3caaf5}</style></defs><path fill="red" fill-opacity="0" d="M0 0h116v116H0z"/><rect class="cls-2" x="22" y="17" width="72" height="83" rx="3"/><rect class="cls-3" x="24" y="19" width="68" height="79" rx="1"/><rect class="cls-2" x="29" y="24" width="58" height="41" rx="3"/><rect class="cls-3" x="31" y="26" width="54" height="37" rx="1"/><path class="cls-4" d="M43.5 71.1a4.9 4.9 0 014.9 4.9c0 4.4-8.8 10.3-8.8 10.3s-8.8-5.7-8.8-10.3 2.2-4.9 4.8-4.9a4.8 4.8 0 014 2 4.6 4.6 0 013.9-2z"/><circle class="cls-4" cx="61" cy="79" r="8"/><path class="cls-4" d="M68.5 86.6l-6.9-1.7 5.4-5.2z"/></svg>